<svg xmlns="http://www.w3.org/2000/svg" width="1200" height="630" viewBox="0 0 1200 630">
  <defs>
    <linearGradient id="bg" x1="0%" y1="0%" x2="100%" y2="100%">
      <stop offset="0%" stop-color="#fff8fa"/>
      <stop offset="40%" stop-color="#fdf0ff"/>
      <stop offset="100%" stop-color="#f0f8ff"/>
    </linearGradient>
    <linearGradient id="line" x1="0%" y1="0%" x2="100%" y2="0%">
      <stop offset="0%" stop-color="transparent"/>
      <stop offset="30%" stop-color="#C9B8E8"/>
      <stop offset="70%" stop-color="#F9C8D4"/>
      <stop offset="100%" stop-color="transparent"/>
    </linearGradient>
  </defs>

  <!-- Background -->
  <rect width="1200" height="630" fill="url(#bg)"/>

  <!-- Subtle border -->
  <rect x="32" y="32" width="1136" height="566" rx="16" fill="none" stroke="#C9B8E8" stroke-width="1.5" stroke-opacity="0.4"/>

  <!-- Floral top-left -->
  <g opacity="0.55" transform="translate(60, 50)">
    <path d="M80 120 Q70 70 50 40" stroke="#B8E8D8" stroke-width="2" fill="none" stroke-linecap="round"/>
    <path d="M80 120 Q90 65 110 38" stroke="#C9B8E8" stroke-width="2" fill="none" stroke-linecap="round"/>
    <path d="M80 120 Q80 60 80 20" stroke="#F9C8D4" stroke-width="1.5" fill="none" stroke-linecap="round"/>
    <path d="M62 78 Q40 58 28 70 Q40 85 62 78Z" fill="#B8E8D8" opacity="0.8"/>
    <path d="M98 72 Q120 52 132 64 Q120 79 98 72Z" fill="#C9B8E8" opacity="0.8"/>
    <circle cx="50" cy="36" r="5" fill="#F9C8D4" opacity="0.9"/>
    <circle cx="110" cy="33" r="5" fill="#C9B8E8" opacity="0.9"/>
    <circle cx="80" cy="16" r="6" fill="#F8D8B8" opacity="0.9"/>
  </g>

  <!-- Floral top-right -->
  <g opacity="0.55" transform="translate(1060, 50) scale(-1,1)">
    <path d="M80 120 Q70 70 50 40" stroke="#B8E8D8" stroke-width="2" fill="none" stroke-linecap="round"/>
    <path d="M80 120 Q90 65 110 38" stroke="#C9B8E8" stroke-width="2" fill="none" stroke-linecap="round"/>
    <path d="M80 120 Q80 60 80 20" stroke="#F9C8D4" stroke-width="1.5" fill="none" stroke-linecap="round"/>
    <path d="M62 78 Q40 58 28 70 Q40 85 62 78Z" fill="#B8E8D8" opacity="0.8"/>
    <path d="M98 72 Q120 52 132 64 Q120 79 98 72Z" fill="#C9B8E8" opacity="0.8"/>
    <circle cx="50" cy="36" r="5" fill="#F9C8D4" opacity="0.9"/>
    <circle cx="110" cy="33" r="5" fill="#C9B8E8" opacity="0.9"/>
    <circle cx="80" cy="16" r="6" fill="#F8D8B8" opacity="0.9"/>
  </g>

  <!-- Wedding Invitation label -->
  <text x="600" y="210" text-anchor="middle" font-family="Georgia, serif" font-size="22" fill="#8A7F7A" letter-spacing="8">WEDDING INVITATION</text>

  <!-- Divider line -->
  <rect x="300" y="228" width="600" height="1" fill="url(#line)"/>

  <!-- Names -->
  <text x="600" y="330" text-anchor="middle" font-family="Georgia, serif" font-size="96" fill="#4A3F5C" font-weight="300">นนท์ &amp; เมย์</text>

  <!-- Ampersand flourish already in names -->

  <!-- Divider line -->
  <rect x="300" y="358" width="600" height="1" fill="url(#line)"/>

  <!-- Date -->
  <text x="600" y="408" text-anchor="middle" font-family="Georgia, serif" font-size="26" fill="#8A7F7A" letter-spacing="4">วันเสาร์ที่ 15 มีนาคม พ.ศ. 2569</text>

  <!-- Venue -->
  <text x="600" y="452" text-anchor="middle" font-family="Georgia, serif" font-size="20" fill="#A89FC0" letter-spacing="2">ตำบลแป-ระ • อำเภอท่าแพ • จังหวัดสตูล</text>

  <!-- Bottom petals -->
  <g opacity="0.4" transform="translate(540, 500)">
    <circle cx="0" cy="0" r="5" fill="#F9C8D4"/>
    <circle cx="30" cy="-8" r="4" fill="#C9B8E8"/>
    <circle cx="60" cy="0" r="5" fill="#B8E8D8"/>
    <circle cx="90" cy="-6" r="4" fill="#F8D8B8"/>
    <circle cx="120" cy="0" r="5" fill="#F9C8D4"/>
  </g>
</svg>
